<svg width="28" height="23" viewBox="0 0 28 23" fill="none" xmlns="http://www.w3.org/2000/svg">
<path d="M5 22.5C4.64583 22.5 4.34896 22.3802 4.10938 22.1406C3.86979 21.901 3.75 21.6042 3.75 21.25V20C2.70833 20 1.82292 19.6354 1.09375 18.9062C0.364583 18.1771 0 17.2917 0 16.25V10C0 8.95833 0.364583 8.07292 1.09375 7.34375C1.82292 6.61458 2.70833 6.25 3.75 6.25V3.75C3.75 2.70833 4.11458 1.82292 4.84375 1.09375C5.57292 0.364583 6.45833 0 7.5 0H20C21.0417 0 21.9271 0.364583 22.6562 1.09375C23.3854 1.82292 23.75 2.70833 23.75 3.75V6.25C24.7917 6.25 25.6771 6.61458 26.4062 7.34375C27.1354 8.07292 27.5 8.95833 27.5 10V16.25C27.5 17.2917 27.1354 18.1771 26.4062 18.9062C25.6771 19.6354 24.7917 20 23.75 20V21.25C23.75 21.6042 23.6302 21.901 23.3906 22.1406C23.151 22.3802 22.8542 22.5 22.5 22.5C22.1458 22.5 21.849 22.3802 21.6094 22.1406C21.3698 21.901 21.25 21.6042 21.25 21.25V20H6.25V21.25C6.25 21.6042 6.13021 21.901 5.89062 22.1406C5.65104 22.3802 5.35417 22.5 5 22.5ZM3.75 17.5H23.75C24.1042 17.5 24.401 17.3802 24.6406 17.1406C24.8802 16.901 25 16.6042 25 16.25V10C25 9.64583 24.8802 9.34896 24.6406 9.10938C24.401 8.86979 24.1042 8.75 23.75 8.75C23.3958 8.75 23.099 8.86979 22.8594 9.10938C22.6198 9.34896 22.5 9.64583 22.5 10V15H5V10C5 9.64583 4.88021 9.34896 4.64062 9.10938C4.40104 8.86979 4.10417 8.75 3.75 8.75C3.39583 8.75 3.09896 8.86979 2.85938 9.10938C2.61979 9.34896 2.5 9.64583 2.5 10V16.25C2.5 16.6042 2.61979 16.901 2.85938 17.1406C3.09896 17.3802 3.39583 17.5 3.75 17.5ZM7.5 12.5H20V10C20 9.4375 20.1146 8.92708 20.3438 8.46875C20.5729 8.01042 20.875 7.60417 21.25 7.25V3.75C21.25 3.39583 21.1302 3.09896 20.8906 2.85938C20.651 2.61979 20.3542 2.5 20 2.5H7.5C7.14583 2.5 6.84896 2.61979 6.60938 2.85938C6.36979 3.09896 6.25 3.39583 6.25 3.75V7.25C6.625 7.60417 6.92708 8.01042 7.15625 8.46875C7.38542 8.92708 7.5 9.4375 7.5 10V12.5Z" fill="#EC5B13"/>
</svg>
