<svg width="36" height="40" viewBox="0 0 36 40" fill="none" xmlns="http://www.w3.org/2000/svg">
<g filter="url(#filter0_d_2074_4755)">
<rect x="2" y="1" width="32" height="36" rx="16" fill="white" shape-rendering="crispEdges"/>
<path d="M10 26V24H12V17C12 15.6167 12.4167 14.3875 13.25 13.3125C14.0833 12.2375 15.1667 11.5333 16.5 11.2V10.5C16.5 10.0833 16.6458 9.72917 16.9375 9.4375C17.2292 9.14583 17.5833 9 18 9C18.4167 9 18.7708 9.14583 19.0625 9.4375C19.3542 9.72917 19.5 10.0833 19.5 10.5V11.2C20.8333 11.5333 21.9167 12.2375 22.75 13.3125C23.5833 14.3875 24 15.6167 24 17V24H26V26H10ZM18 29C17.45 29 16.9792 28.8042 16.5875 28.4125C16.1958 28.0208 16 27.55 16 27H20C20 27.55 19.8042 28.0208 19.4125 28.4125C19.0208 28.8042 18.55 29 18 29ZM14 24H22V17C22 15.9 21.6083 14.9583 20.825 14.175C20.0417 13.3917 19.1 13 18 13C16.9 13 15.9583 13.3917 15.175 14.175C14.3917 14.9583 14 15.9 14 17V24Z" fill="#334155"/>
<rect x="19.0195" y="10" width="6" height="6" rx="3" fill="#EF4444" stroke="white" stroke-width="2"/>
</g>
<defs>
<filter id="filter0_d_2074_4755" x="0" y="0" width="36" height="40" filterUnits="userSpaceOnUse" color-interpolation-filters="sRGB">
<feFlood flood-opacity="0" result="BackgroundImageFix"/>
<feColorMatrix in="SourceAlpha" type="matrix" values="0 0 0 0 0 0 0 0 0 0 0 0 0 0 0 0 0 0 127 0" result="hardAlpha"/>
<feOffset dy="1"/>
<feGaussianBlur stdDeviation="1"/>
<feComposite in2="hardAlpha" operator="out"/>
<feColorMatrix type="matrix" values="0 0 0 0 0 0 0 0 0 0 0 0 0 0 0 0 0 0 0.05 0"/>
<feBlend mode="normal" in2="BackgroundImageFix" result="effect1_dropShadow_2074_4755"/>
<feBlend mode="normal" in="SourceGraphic" in2="effect1_dropShadow_2074_4755" result="shape"/>
</filter>
</defs>
</svg>
