<svg width="16" height="14" viewBox="0 0 16 14" fill="none" xmlns="http://www.w3.org/2000/svg">
<path d="M5.25 8.53125C5.28646 8.13021 5.50521 7.91146 5.90625 7.875H10.5V4.375H7C6.74479 4.375 6.53516 4.29297 6.37109 4.12891C6.20703 3.96484 6.125 3.75521 6.125 3.5V0H1.3125C0.947917 0.0182292 0.638021 0.145833 0.382812 0.382812C0.145833 0.638021 0.0182292 0.947917 0 1.3125V12.6875C0.0182292 13.0521 0.145833 13.362 0.382812 13.6172C0.638021 13.8542 0.947917 13.9818 1.3125 14H9.1875C9.55208 13.9818 9.86198 13.8542 10.1172 13.6172C10.3542 13.362 10.4818 13.0521 10.5 12.6875V9.1875H5.90625C5.50521 9.15104 5.28646 8.93229 5.25 8.53125ZM7 0V3.5H10.5L7 0ZM15.5312 8.06641L13.3438 5.87891C13.0339 5.6237 12.724 5.6237 12.4141 5.87891C12.1589 6.1888 12.1589 6.4987 12.4141 6.80859L13.5078 7.875H10.5V9.1875H13.5078L12.4414 10.2539C12.3138 10.3815 12.25 10.5365 12.25 10.7188C12.25 10.901 12.3138 11.056 12.4414 11.1836C12.7513 11.4388 13.0612 11.4388 13.3711 11.1836L15.5586 8.99609C15.8138 8.6862 15.8047 8.3763 15.5312 8.06641Z" fill="white"/>
</svg>
