<svg width="20" height="17" viewBox="0 0 20 17" fill="none" xmlns="http://www.w3.org/2000/svg">
<path d="M7.33582 10.625L7.33582 12.1667C7.33582 13.1095 7.33582 13.5809 7.04292 13.8738C6.75003 14.1667 6.27862 14.1667 5.33582 14.1667L5.03118 14.1667C4.30909 14.1667 3.94804 14.1667 3.69124 13.9889C3.59231 13.9205 3.50655 13.8347 3.43808 13.7358C3.26034 13.479 3.26034 13.1179 3.26034 12.3958V12.3958C3.26034 11.6737 3.26034 11.3127 3.43808 11.0559C3.50655 10.957 3.59231 10.8712 3.69124 10.8027C3.94804 10.625 4.30909 10.625 5.03118 10.625L7.33582 10.625Z" stroke="#222222"/>
<path d="M12.2264 2.83333L16.3019 2.83333L16.3019 6.375" stroke="#222222"/>
<path d="M16.3019 2.83301L7.33582 10.6247" stroke="#222222"/>
</svg>
