<svg width="48" height="48" viewBox="0 0 48 48" fill="none" xmlns="http://www.w3.org/2000/svg">
<rect width="48" height="48" rx="24" fill="black" fill-opacity="0.8"/>
<rect x="0.5" y="0.5" width="47" height="47" rx="23.5" stroke="white" stroke-opacity="0.2"/>
<path d="M23.2812 16.1562C23.3229 16.0521 23.3958 16 23.5 16C23.6042 16 23.6771 16.0521 23.7188 16.1562L24.1562 17.3438L25.3438 17.7812C25.4479 17.8229 25.5 17.8958 25.5 18C25.5 18.1042 25.4479 18.1771 25.3438 18.2188L24.1562 18.6562L23.7188 19.8438C23.6771 19.9479 23.6042 20 23.5 20C23.3958 20 23.3229 19.9479 23.2812 19.8438L22.8438 18.6562L21.625 18.2188C21.5417 18.1771 21.5 18.1042 21.5 18C21.5 17.8958 21.5417 17.8229 21.625 17.7812L22.8438 17.3438L23.2812 16.1562ZM28.8438 16.4375C29.1562 16.1458 29.5104 16 29.9062 16C30.3229 16 30.6771 16.1458 30.9688 16.4375L32.0625 17.5312C32.3542 17.8229 32.5 18.1771 32.5 18.5938C32.5 18.9896 32.3542 19.3438 32.0625 19.6562L20.1562 31.5625C19.8438 31.8542 19.4896 32 19.0938 32C18.6771 32 18.3229 31.8542 18.0312 31.5625L16.9375 30.4688C16.6458 30.1771 16.5 29.8229 16.5 29.4062C16.5 29.0104 16.6458 28.6562 16.9375 28.3438L28.8438 16.4375ZM29.9062 17.8438L26.625 21.125L27.375 21.875L30.6562 18.5938L29.9062 17.8438ZM15.7188 19.6562L17.5 19L18.1562 17.2188C18.2188 17.0729 18.3333 17 18.5 17C18.6667 17 18.7812 17.0729 18.8438 17.2188L19.5 19L21.2812 19.6562C21.4271 19.7188 21.5 19.8333 21.5 20C21.5 20.1667 21.4271 20.2812 21.2812 20.3438L19.5 21L18.8438 22.7812C18.7812 22.9271 18.6667 23 18.5 23C18.3333 23 18.2188 22.9271 18.1562 22.7812L17.5 21L15.7188 20.3438C15.5729 20.2812 15.5 20.1667 15.5 20C15.5 19.8333 15.5729 19.7188 15.7188 19.6562ZM26.75 27.6562L28.5 27L29.1562 25.25C29.2188 25.0833 29.3333 25 29.5 25C29.6667 25 29.7812 25.0833 29.8438 25.25L30.5 27L32.2812 27.6562C32.4271 27.7188 32.5 27.8333 32.5 28C32.5 28.1667 32.4271 28.2812 32.2812 28.3438L30.5 29L29.8438 30.7812C29.7812 30.9271 29.6667 31 29.5 31C29.3333 31 29.2188 30.9271 29.1562 30.7812L28.5 29L26.75 28.3438C26.5833 28.2812 26.5 28.1667 26.5 28C26.5 27.8333 26.5833 27.7188 26.75 27.6562Z" fill="white"/>
</svg>
